<?xml version="1.0" encoding="utf-8"?>
<!-- Generator: Adobe Illustrator 23.0.6, SVG Export Plug-In . SVG Version: 6.00 Build 0)  -->
<svg version="1.1" id="Layer_1" xmlns="http://www.w3.org/2000/svg" xmlns:xlink="http://www.w3.org/1999/xlink" x="0px" y="0px"
	 viewBox="0 0 349 128" style="enable-background:new 0 0 349 128;" xml:space="preserve">
<style type="text/css">
	.st0{fill:#FFFFFF;}
</style>
<g>
	<g>
		<path class="st0" d="M103.46,74.02H100v10.47h-7.28V52.64h12.74c6.05,0,10.92,4.87,10.92,10.92c0,3.91-2.37,7.46-5.87,9.24
			l6.78,11.69h-7.83L103.46,74.02z M100,67.65h5.46c2,0,3.64-1.77,3.64-4.1c0-2.32-1.64-4.1-3.64-4.1H100V67.65z"/>
		<path class="st0" d="M130.9,79.03c1.87,0,3.46-0.73,4.37-1.73l5.46,3.14c-2.23,3.09-5.6,4.69-9.92,4.69
			c-7.78,0-12.6-5.23-12.6-12.01s4.91-12.01,12.1-12.01c6.64,0,11.56,5.14,11.56,12.01c0,0.96-0.09,1.87-0.27,2.73h-16.15
			C126.3,78.21,128.4,79.03,130.9,79.03z M135.08,70.75c-0.73-2.64-2.78-3.59-4.82-3.59c-2.59,0-4.32,1.27-4.96,3.59H135.08z"/>
		<path class="st0" d="M145.96,67.61h17.29v6.55h-17.29V67.61z"/>
		<path class="st0" d="M187.37,77.48v7.01h-18.66V52.64h7.28v24.84H187.37z"/>
		<path class="st0" d="M201.66,79.03c1.87,0,3.46-0.73,4.37-1.73l5.46,3.14c-2.23,3.09-5.6,4.69-9.92,4.69
			c-7.78,0-12.6-5.23-12.6-12.01s4.91-12.01,12.1-12.01c6.64,0,11.56,5.14,11.56,12.01c0,0.96-0.09,1.87-0.27,2.73H196.2
			C197.06,78.21,199.15,79.03,201.66,79.03z M205.84,70.75c-0.73-2.64-2.78-3.59-4.82-3.59c-2.59,0-4.32,1.27-4.96,3.59H205.84z"/>
		<path class="st0" d="M239.61,61.74v22.75h-6.83v-2.14c-1.5,1.73-3.73,2.78-6.78,2.78c-5.96,0-10.87-5.23-10.87-12.01
			S220.04,61.1,226,61.1c3.05,0,5.28,1.05,6.78,2.78v-2.14H239.61z M232.78,73.11c0-3.41-2.27-5.55-5.41-5.55s-5.41,2.14-5.41,5.55
			s2.27,5.55,5.41,5.55S232.78,76.53,232.78,73.11z"/>
		<path class="st0" d="M244.16,80.8c0-2.37,1.96-4.32,4.32-4.32c2.37,0,4.32,1.96,4.32,4.32s-1.96,4.32-4.32,4.32
			C246.11,85.13,244.16,83.17,244.16,80.8z"/>
		<path class="st0" d="M254.39,73.11c0-6.78,5.14-12.01,12.06-12.01c4.41,0,8.33,2.32,10.28,5.82l-5.96,3.46
			c-0.77-1.59-2.41-2.55-4.41-2.55c-2.96,0-5.14,2.14-5.14,5.28s2.18,5.28,5.14,5.28c2,0,3.69-0.96,4.41-2.55l5.96,3.41
			c-1.96,3.55-5.82,5.87-10.28,5.87C259.54,85.13,254.39,79.89,254.39,73.11z"/>
		<path class="st0" d="M277.87,73.11c0-6.78,5.37-12.01,12.06-12.01c6.69,0,12.06,5.23,12.06,12.01s-5.37,12.01-12.06,12.01
			C283.24,85.13,277.87,79.89,277.87,73.11z M295.16,73.11c0-3.23-2.28-5.37-5.23-5.37s-5.23,2.14-5.23,5.37s2.27,5.37,5.23,5.37
			S295.16,76.34,295.16,73.11z"/>
		<path class="st0" d="M339.98,70.52v13.97h-6.83V71.11c0-2.27-1.09-3.73-3.28-3.73c-2.27,0-3.55,1.59-3.55,4.28v12.83h-6.83V71.11
			c0-2.27-1.09-3.73-3.28-3.73c-2.27,0-3.55,1.59-3.55,4.28v12.83h-6.83V61.74h6.83v2.09c1.05-1.55,3.05-2.73,6.1-2.73
			c2.68,0,4.69,1.09,5.96,3c1.27-1.82,3.37-3,6.6-3C336.57,61.1,339.98,64.83,339.98,70.52z"/>
	</g>
	<g>
		<g>
			<path class="st0" d="M78.76,104.01H9.34V11.43h69.41V104.01z M15.34,98.01h57.41V17.43H15.34V98.01z"/>
		</g>
		<g>
			<polygon class="st0" points="20.46,123.49 14.9,120.15 9.34,123.49 9.34,107.09 20.46,107.09 			"/>
		</g>
		<g>
			<polygon class="st0" points="59.11,82.19 26.99,82.19 26.99,35.25 30.99,35.25 30.99,78.19 59.11,78.19 			"/>
		</g>
		<g>
			<polygon class="st0" points="61.11,61.32 57.11,61.32 57.11,37.25 41.64,37.25 41.64,33.25 61.11,33.25 			"/>
		</g>
	</g>
	<g>
		<path class="st0" d="M98.03,102.98l-0.19,1.04h-4.66l1.45-8.26h1.1l-1.27,7.22H98.03z"/>
		<path class="st0" d="M99.86,98.12h1.03l-1.04,5.9h-1.03L99.86,98.12z M100.01,96.36c0.06-0.38,0.39-0.7,0.8-0.7
			c0.38,0,0.64,0.32,0.58,0.7c-0.07,0.38-0.4,0.68-0.81,0.68C100.18,97.04,99.95,96.72,100.01,96.36z"/>
		<path class="st0" d="M108.18,101.11c-0.29,1.69-1.66,3.05-3.49,3.05c-0.98,0-1.69-0.5-2.05-1.25l-0.19,1.1h-1.03l1.45-8.26h1.03
			l-0.58,3.29c0.58-0.67,1.4-1.08,2.38-1.08C107.35,97.96,108.47,99.39,108.18,101.11z M105.43,98.95c-1.18,0-2.24,0.9-2.47,2.11
			c-0.2,1.2,0.55,2.11,1.73,2.11c1.21,0,2.24-0.94,2.45-2.16C107.36,99.81,106.61,98.95,105.43,98.95z"/>
		<path class="st0" d="M112.81,98.01l-0.19,1.07c-0.87-0.02-1.91,0.4-2.16,1.8v-0.01l-0.55,3.14h-1.03l1.04-5.9h1.03l-0.15,0.86
			C111.35,98.22,112.07,97.99,112.81,98.01z"/>
		<path class="st0" d="M118.76,101.08c-0.01,0.08-0.07,0.32-0.12,0.46h-4.93c0,1.07,0.73,1.66,1.79,1.66c0.79,0,1.45-0.33,1.88-0.87
			l0.77,0.55c-0.61,0.84-1.67,1.29-2.76,1.29c-1.88,0-2.96-1.43-2.64-3.22c0.29-1.72,1.78-2.98,3.5-2.98
			C118.04,97.96,119.09,99.39,118.76,101.08z M117.8,100.63c0.05-1.17-0.66-1.7-1.6-1.7c-1.1,0-1.98,0.65-2.32,1.7H117.8z"/>
		<path class="st0" d="M123.33,98.01l-0.19,1.07c-0.87-0.02-1.91,0.4-2.16,1.8v-0.01l-0.55,3.14h-1.03l1.04-5.9h1.03l-0.15,0.86
			C121.87,98.22,122.59,97.99,123.33,98.01z"/>
		<path class="st0" d="M124.32,98.12h1.03l-1.04,5.9h-1.03L124.32,98.12z M124.47,96.36c0.06-0.38,0.39-0.7,0.8-0.7
			c0.38,0,0.64,0.32,0.58,0.7c-0.07,0.38-0.4,0.68-0.81,0.68C124.64,97.04,124.41,96.72,124.47,96.36z"/>
		<path class="st0" d="M132.84,98.12l-1.04,5.9h-1.03l0.15-0.84c-0.58,0.63-1.37,0.99-2.36,0.99c-1.71,0-2.78-1.52-2.48-3.23
			c0.33-1.86,1.8-2.97,3.35-2.97c0.97,0,1.77,0.45,2.18,1.25l0.19-1.1H132.84z M131.28,101.11c0.26-1.4-0.67-2.16-1.77-2.16
			c-1.05,0-2.16,0.71-2.39,2.06c-0.21,1.2,0.53,2.16,1.73,2.16C130.03,103.18,131.08,102.31,131.28,101.11z"/>
		<path class="st0" d="M141.89,99.76c0.64,0.38,1,1.08,0.87,1.98c-0.19,1.25-1.26,2.28-2.82,2.28h-3.54l1.45-8.26h3.14
			c1.34,0,2.28,1.01,2.08,2.31C142.95,98.81,142.5,99.4,141.89,99.76z M140.6,100.31h-2.45l-0.47,2.68h2.41c0.8,0,1.47-0.6,1.6-1.34
			C141.81,100.9,141.35,100.31,140.6,100.31z M140.92,96.78h-2.15l-0.45,2.52h2.19c0.7,0,1.33-0.55,1.46-1.26
			C142.1,97.36,141.67,96.78,140.92,96.78z"/>
		<path class="st0" d="M143.8,100.96c0.34-1.9,1.99-3,3.63-3c1.64,0,2.89,1.31,2.56,3.18c-0.33,1.93-1.96,3.02-3.55,3.02
			C144.74,104.17,143.45,102.87,143.8,100.96z M148.97,101.04c0.24-1.34-0.65-2.08-1.71-2.08c-1.05,0.01-2.18,0.73-2.44,2.1
			c-0.22,1.38,0.65,2.11,1.7,2.1C147.59,103.16,148.74,102.43,148.97,101.04z"/>
		<path class="st0" d="M156.84,98.12l-1.04,5.9h-1.03l0.14-0.78c-0.54,0.66-1.26,0.93-2.02,0.93c-1.38,0-2.17-0.94-1.92-2.43
			l0.64-3.62h1.03l-0.63,3.56c-0.17,0.97,0.25,1.51,1.19,1.51c0.93,0,1.82-0.55,2.05-1.95v0.01l0.55-3.14H156.84z"/>
		<path class="st0" d="M159.3,102.3c-0.17,0.9,0.41,0.85,1.44,0.79l-0.17,0.92c-1.69,0.24-2.56-0.24-2.3-1.71l0.55-3.2h-1.17
			l0.19-0.99H159l0.24-1.34l1.09-0.31l-0.29,1.65h1.58l-0.18,0.99h-1.57L159.3,102.3z"/>
		<path class="st0" d="M162.82,98.12h1.03l-1.04,5.9h-1.03L162.82,98.12z M162.96,96.36c0.06-0.38,0.39-0.7,0.8-0.7
			c0.38,0,0.64,0.32,0.58,0.7c-0.07,0.38-0.4,0.68-0.81,0.68C163.14,97.04,162.91,96.72,162.96,96.36z"/>
		<path class="st0" d="M171.34,98.12l-1.45,8.26h-1.03l0.57-3.2c-0.58,0.63-1.37,0.99-2.36,0.99c-1.71,0-2.78-1.52-2.48-3.23
			c0.33-1.86,1.8-2.97,3.35-2.97c0.97,0,1.77,0.45,2.18,1.25l0.19-1.1H171.34z M169.78,101.12c0.26-1.4-0.67-2.17-1.77-2.17
			c-1.05,0-2.16,0.71-2.39,2.06c-0.21,1.2,0.53,2.16,1.73,2.16C168.53,103.18,169.58,102.33,169.78,101.12z"/>
		<path class="st0" d="M177.98,98.12l-1.04,5.9h-1.03l0.14-0.78c-0.54,0.66-1.26,0.93-2.02,0.93c-1.38,0-2.17-0.94-1.92-2.43
			l0.64-3.62h1.03l-0.63,3.56c-0.17,0.97,0.25,1.51,1.19,1.51c0.93,0,1.82-0.55,2.05-1.95v0.01l0.55-3.14H177.98z"/>
		<path class="st0" d="M184.73,101.08c-0.01,0.08-0.07,0.32-0.12,0.46h-4.93c0,1.07,0.73,1.66,1.79,1.66c0.79,0,1.45-0.33,1.88-0.87
			l0.77,0.55c-0.61,0.84-1.67,1.29-2.76,1.29c-1.88,0-2.96-1.43-2.64-3.22c0.29-1.72,1.78-2.98,3.5-2.98
			C184.01,97.96,185.06,99.39,184.73,101.08z M183.76,100.63c0.05-1.17-0.66-1.7-1.6-1.7c-1.1,0-1.98,0.65-2.32,1.7H183.76z"/>
		<path class="st0" d="M195.71,95.76l-1.45,8.26h-1.03l0.15-0.85c-0.58,0.63-1.38,1-2.37,1c-1.71,0-2.78-1.52-2.48-3.23
			c0.33-1.86,1.8-2.97,3.35-2.97c0.97,0,1.78,0.45,2.18,1.26l0.61-3.47H195.71z M193.75,101.11c0.25-1.4-0.67-2.16-1.77-2.16
			c-1.06,0-2.18,0.71-2.41,2.06c-0.21,1.2,0.53,2.16,1.73,2.16C192.5,103.18,193.53,102.31,193.75,101.11z"/>
		<path class="st0" d="M202.04,101.08c-0.01,0.08-0.07,0.32-0.12,0.46H197c0,1.07,0.73,1.66,1.79,1.66c0.79,0,1.45-0.33,1.88-0.87
			l0.77,0.55c-0.61,0.84-1.67,1.29-2.76,1.29c-1.88,0-2.96-1.43-2.64-3.22c0.29-1.72,1.78-2.98,3.5-2.98
			C201.32,97.96,202.37,99.39,202.04,101.08z M201.08,100.63c0.05-1.17-0.66-1.7-1.6-1.7c-1.1,0-1.98,0.65-2.32,1.7H201.08z"/>
		<path class="st0" d="M206.13,101.24l0.96-5.49h1.1l-0.96,5.44c-0.2,1.12,0.33,1.9,1.65,1.9c1.36,0,2.17-0.81,2.36-1.9l0.96-5.44
			h1.09l-0.96,5.49c-0.34,1.88-1.72,2.92-3.48,2.92C206.97,104.17,205.82,102.98,206.13,101.24z"/>
		<path class="st0" d="M213.26,102.74l0.92-0.47c0.12,0.54,0.61,0.93,1.37,0.93c0.68,0,1.19-0.27,1.29-0.78
			c0.22-1.26-3.23-0.63-2.84-2.83c0.18-0.97,1.12-1.63,2.24-1.63c0.99,0,1.71,0.45,2.05,1.23l-0.91,0.47
			c-0.17-0.52-0.66-0.74-1.19-0.74c-0.48,0-1.06,0.22-1.17,0.78c-0.24,1.29,3.22,0.6,2.83,2.84c-0.19,1.05-1.12,1.63-2.38,1.63
			C214.25,104.17,213.53,103.58,213.26,102.74z"/>
		<path class="st0" d="M225.62,98.12l-1.04,5.9h-1.03l0.15-0.84c-0.58,0.63-1.37,0.99-2.36,0.99c-1.71,0-2.78-1.52-2.48-3.23
			c0.33-1.86,1.8-2.97,3.35-2.97c0.97,0,1.77,0.45,2.18,1.25l0.19-1.1H225.62z M224.06,101.11c0.26-1.4-0.67-2.16-1.77-2.16
			c-1.05,0-2.16,0.71-2.39,2.06c-0.21,1.2,0.53,2.16,1.73,2.16C222.81,103.18,223.86,102.31,224.06,101.11z"/>
		<path class="st0" d="M233.52,95.76l-1.45,8.26h-1.03l0.15-0.85c-0.58,0.63-1.38,1-2.37,1c-1.71,0-2.78-1.52-2.48-3.23
			c0.33-1.86,1.8-2.97,3.35-2.97c0.97,0,1.78,0.45,2.18,1.26l0.61-3.47H233.52z M231.55,101.11c0.25-1.4-0.67-2.16-1.77-2.16
			c-1.06,0-2.18,0.71-2.41,2.06c-0.21,1.2,0.53,2.16,1.73,2.16C230.3,103.18,231.34,102.31,231.55,101.11z"/>
		<path class="st0" d="M233.82,100.96c0.34-1.9,1.99-3,3.63-3c1.64,0,2.89,1.31,2.56,3.18c-0.33,1.93-1.96,3.02-3.55,3.02
			C234.76,104.17,233.48,102.87,233.82,100.96z M239,101.04c0.24-1.34-0.65-2.08-1.71-2.08c-1.05,0.01-2.18,0.73-2.44,2.1
			c-0.22,1.38,0.65,2.11,1.7,2.1C237.62,103.16,238.76,102.43,239,101.04z"/>
		<path class="st0" d="M240.54,102.74l0.92-0.47c0.12,0.54,0.61,0.93,1.37,0.93c0.68,0,1.19-0.27,1.29-0.78
			c0.22-1.26-3.23-0.63-2.84-2.83c0.18-0.97,1.12-1.63,2.24-1.63c0.99,0,1.71,0.45,2.05,1.23l-0.91,0.47
			c-0.17-0.52-0.66-0.74-1.19-0.74c-0.48,0-1.06,0.22-1.17,0.78c-0.24,1.29,3.22,0.6,2.83,2.84c-0.19,1.05-1.12,1.63-2.38,1.63
			C241.53,104.17,240.81,103.58,240.54,102.74z"/>
		<path class="st0" d="M250.67,95.76h0.84l3.22,6.19l1.07-6.19h1.1l-1.45,8.26h-0.84l-3.21-6.19l-1.09,6.19h-1.1L250.67,95.76z"/>
		<path class="st0" d="M258.14,96.24c0.18-1.01,1.07-1.78,2.17-1.78c1.05,0,1.72,0.86,1.54,1.88c-0.18,1.01-1,1.78-2.18,1.78
			C258.62,98.12,257.96,97.24,258.14,96.24z M260.92,96.29c0.09-0.53-0.21-0.94-0.77-0.94s-0.99,0.41-1.08,0.94
			c-0.09,0.53,0.17,0.94,0.75,0.94C260.39,97.23,260.84,96.82,260.92,96.29z"/>
		<path class="st0" d="M268.62,95.76l-1.45,8.26h-1.1l1.24-7.07v0.02l-1.84,0.52l-0.11-0.98l2.31-0.75H268.62z"/>
		<path class="st0" d="M278.03,101.08c-0.01,0.08-0.07,0.32-0.12,0.46h-4.93c0,1.07,0.73,1.66,1.79,1.66c0.79,0,1.45-0.33,1.88-0.87
			l0.77,0.55c-0.61,0.84-1.67,1.29-2.76,1.29c-1.88,0-2.96-1.43-2.64-3.22c0.29-1.72,1.78-2.98,3.5-2.98
			C277.31,97.96,278.36,99.39,278.03,101.08z M277.06,100.63c0.05-1.17-0.66-1.7-1.6-1.7c-1.1,0-1.98,0.65-2.32,1.7H277.06z"/>
		<path class="st0" d="M284.54,100.39l-0.64,3.62h-1.03l0.63-3.56c0.17-0.97-0.25-1.51-1.19-1.51c-0.93,0-1.82,0.55-2.05,1.95v-0.01
			l-0.55,3.14h-1.03l1.04-5.9h1.03l-0.14,0.78c0.54-0.66,1.26-0.93,2.02-0.93C283.99,97.96,284.78,98.91,284.54,100.39z"/>
		<path class="st0" d="M293.49,102.16h-3.72l-1.01,1.85h-1.19l4.54-8.26h1.24l1.63,8.26h-1.16L293.49,102.16z M293.31,101.14
			l-0.74-4.09l-2.23,4.09H293.31z"/>
		<path class="st0" d="M299.78,98.01l-0.19,1.07c-0.87-0.02-1.91,0.4-2.16,1.8v-0.01l-0.55,3.14h-1.03l1.04-5.9h1.03l-0.15,0.86
			C298.31,98.22,299.03,97.99,299.78,98.01z"/>
		<path class="st0" d="M306.46,98.12l-0.99,5.65c-0.33,1.86-1.72,2.76-3.39,2.76c-1.26,0-2.22-0.53-2.63-1.44l0.91-0.47
			c0.22,0.53,0.74,0.96,1.78,0.96c1.3,0,2.11-0.67,2.31-1.8l0.12-0.7c-0.55,0.65-1.36,1.04-2.3,1.04c-1.83,0-2.83-1.47-2.56-3.2
			c0.27-1.78,1.78-2.95,3.34-2.95c0.96,0,1.79,0.44,2.19,1.26l0.2-1.11H306.46z M304.91,101.21l0.06-0.31
			c0.14-1.26-0.8-1.96-1.82-1.96c-1.07,0-2.21,0.75-2.41,2.05c-0.2,1.21,0.54,2.12,1.77,2.12
			C303.62,103.12,304.63,102.36,304.91,101.21z"/>
		<path class="st0" d="M313.22,101.08c-0.01,0.08-0.07,0.32-0.12,0.46h-4.93c0,1.07,0.73,1.66,1.79,1.66c0.79,0,1.45-0.33,1.88-0.87
			l0.77,0.55c-0.61,0.84-1.67,1.29-2.76,1.29c-1.88,0-2.96-1.43-2.64-3.22c0.29-1.72,1.78-2.98,3.5-2.98
			C312.5,97.96,313.55,99.39,313.22,101.08z M312.25,100.63c0.05-1.17-0.66-1.7-1.6-1.7c-1.1,0-1.98,0.65-2.32,1.7H312.25z"/>
		<path class="st0" d="M319.72,100.39l-0.64,3.62h-1.03l0.63-3.56c0.17-0.97-0.25-1.51-1.19-1.51c-0.93,0-1.82,0.55-2.05,1.95v-0.01
			l-0.55,3.14h-1.03l1.04-5.9h1.03l-0.14,0.78c0.54-0.66,1.26-0.93,2.02-0.93C319.18,97.96,319.97,98.91,319.72,100.39z"/>
		<path class="st0" d="M322.46,102.3c-0.17,0.9,0.41,0.85,1.44,0.79l-0.17,0.92c-1.69,0.24-2.56-0.24-2.3-1.71l0.55-3.2h-1.17
			l0.19-0.99h1.16l0.24-1.34l1.09-0.31l-0.29,1.65h1.58l-0.18,0.99h-1.57L322.46,102.3z"/>
		<path class="st0" d="M325.98,98.12h1.03l-1.04,5.9h-1.03L325.98,98.12z M326.12,96.36c0.06-0.38,0.39-0.7,0.8-0.7
			c0.38,0,0.64,0.32,0.58,0.7c-0.07,0.38-0.4,0.68-0.81,0.68C326.3,97.04,326.06,96.72,326.12,96.36z"/>
		<path class="st0" d="M333.4,100.39l-0.64,3.62h-1.03l0.63-3.56c0.17-0.97-0.25-1.51-1.19-1.51c-0.93,0-1.82,0.55-2.05,1.95v-0.01
			l-0.55,3.14h-1.03l1.04-5.9h1.03l-0.14,0.78c0.54-0.66,1.26-0.93,2.02-0.93C332.85,97.96,333.64,98.91,333.4,100.39z"/>
		<path class="st0" d="M341.14,98.12l-1.04,5.9h-1.03l0.15-0.84c-0.58,0.63-1.37,0.99-2.36,0.99c-1.71,0-2.78-1.52-2.48-3.23
			c0.33-1.86,1.8-2.97,3.35-2.97c0.97,0,1.77,0.45,2.18,1.25l0.19-1.1H341.14z M339.58,101.11c0.26-1.4-0.67-2.16-1.77-2.16
			c-1.05,0-2.16,0.71-2.39,2.06c-0.21,1.2,0.53,2.16,1.73,2.16C338.33,103.18,339.38,102.31,339.58,101.11z"/>
	</g>
</g>
</svg>
