<?xml version="1.0" encoding="utf-8"?>
<!-- Generator: Adobe Illustrator 23.0.6, SVG Export Plug-In . SVG Version: 6.00 Build 0)  -->
<svg version="1.1" id="Layer_1" xmlns="http://www.w3.org/2000/svg" xmlns:xlink="http://www.w3.org/1999/xlink" x="0px" y="0px"
	 viewBox="0 0 349 87" style="enable-background:new 0 0 349 87;" xml:space="preserve">
<style type="text/css">
	.st0{fill:#FFFFFF;}
</style>
<g>
	<path class="st0" d="M21.61,37.3h-4.71v14.24H7V8.2h17.34c8.23,0,14.86,6.62,14.86,14.86c0,5.32-3.22,10.15-7.99,12.57l9.22,15.91
		H29.78L21.61,37.3z M16.91,28.64h7.43c2.72,0,4.95-2.41,4.95-5.57c0-3.16-2.23-5.57-4.95-5.57h-7.43V28.64z"/>
	<path class="st0" d="M58.94,44.11c2.54,0,4.7-0.99,5.94-2.35l7.43,4.27c-3.03,4.21-7.61,6.38-13.5,6.38
		c-10.59,0-17.15-7.12-17.15-16.34s6.69-16.34,16.47-16.34c9.04,0,15.72,7,15.72,16.34c0,1.3-0.12,2.54-0.37,3.71H51.51
		C52.69,43,55.54,44.11,58.94,44.11z M64.64,32.84c-0.99-3.59-3.78-4.89-6.56-4.89c-3.53,0-5.88,1.73-6.75,4.89H64.64z"/>
	<path class="st0" d="M79.44,28.57h23.53v8.91H79.44V28.57z"/>
	<path class="st0" d="M135.77,42.01v9.53h-25.38V8.2h9.91v33.8H135.77z"/>
	<path class="st0" d="M155.22,44.11c2.54,0,4.7-0.99,5.94-2.35l7.43,4.27c-3.03,4.21-7.61,6.38-13.5,6.38
		c-10.59,0-17.15-7.12-17.15-16.34s6.69-16.34,16.47-16.34c9.04,0,15.73,7,15.73,16.34c0,1.3-0.12,2.54-0.37,3.71h-21.98
		C148.96,43,151.81,44.11,155.22,44.11z M160.91,32.84c-0.99-3.59-3.78-4.89-6.56-4.89c-3.53,0-5.88,1.73-6.75,4.89H160.91z"/>
	<path class="st0" d="M206.85,20.59v30.95h-9.29v-2.91c-2.04,2.35-5.08,3.78-9.22,3.78c-8.11,0-14.8-7.12-14.8-16.34
		s6.69-16.34,14.8-16.34c4.15,0,7.18,1.42,9.22,3.78v-2.91H206.85z M197.56,36.06c0-4.64-3.1-7.55-7.37-7.55s-7.37,2.91-7.37,7.55
		s3.1,7.55,7.37,7.55S197.56,40.71,197.56,36.06z"/>
	<path class="st0" d="M213.04,46.53c0-3.22,2.66-5.88,5.88-5.88c3.22,0,5.88,2.66,5.88,5.88c0,3.22-2.66,5.88-5.88,5.88
		C215.7,52.41,213.04,49.75,213.04,46.53z"/>
	<path class="st0" d="M226.97,36.06c0-9.22,7-16.34,16.41-16.34c6.01,0,11.33,3.16,13.99,7.92l-8.11,4.7
		c-1.05-2.17-3.28-3.47-6.01-3.47c-4.02,0-7,2.91-7,7.18s2.97,7.18,7,7.18c2.72,0,5.01-1.3,6.01-3.47l8.11,4.64
		c-2.66,4.83-7.92,7.99-13.99,7.99C233.97,52.41,226.97,45.29,226.97,36.06z"/>
	<path class="st0" d="M258.92,36.06c0-9.22,7.31-16.34,16.41-16.34c9.1,0,16.41,7.12,16.41,16.34s-7.31,16.34-16.41,16.34
		C266.22,52.41,258.92,45.29,258.92,36.06z M282.44,36.06c0-4.4-3.1-7.31-7.12-7.31c-4.02,0-7.12,2.91-7.12,7.31s3.1,7.31,7.12,7.31
		C279.35,43.37,282.44,40.46,282.44,36.06z"/>
	<path class="st0" d="M343.42,32.53v19.01h-9.29v-18.2c0-3.1-1.49-5.08-4.46-5.08c-3.1,0-4.83,2.17-4.83,5.82v17.46h-9.29v-18.2
		c0-3.1-1.49-5.08-4.46-5.08c-3.1,0-4.83,2.17-4.83,5.82v17.46h-9.29V20.59h9.29v2.85c1.42-2.11,4.15-3.71,8.3-3.71
		c3.65,0,6.38,1.49,8.11,4.09c1.73-2.48,4.58-4.09,8.98-4.09C338.78,19.72,343.42,24.8,343.42,32.53z"/>
</g>
<g>
	<path class="st0" d="M14.22,76.69l-0.26,1.41H7.62L9.6,66.87h1.49l-1.73,9.82H14.22z"/>
	<path class="st0" d="M16.72,70.08h1.4l-1.41,8.02h-1.4L16.72,70.08z M16.91,67.69c0.08-0.51,0.53-0.95,1.09-0.95
		c0.51,0,0.87,0.43,0.79,0.95c-0.1,0.51-0.55,0.93-1.11,0.93C17.15,68.62,16.83,68.19,16.91,67.69z"/>
	<path class="st0" d="M28.03,74.16c-0.4,2.29-2.26,4.16-4.75,4.16c-1.33,0-2.3-0.67-2.79-1.7l-0.26,1.49h-1.4l1.97-11.23h1.4
		l-0.79,4.48c0.79-0.91,1.91-1.48,3.24-1.48C26.91,69.87,28.43,71.82,28.03,74.16z M24.29,71.22c-1.61,0-3.05,1.22-3.35,2.87
		c-0.27,1.64,0.75,2.87,2.36,2.87c1.65,0,3.05-1.28,3.34-2.94C26.92,72.39,25.89,71.22,24.29,71.22z"/>
	<path class="st0" d="M34.33,69.94l-0.26,1.46c-1.19-0.03-2.6,0.55-2.94,2.46v-0.02l-0.75,4.27h-1.4l1.41-8.02h1.4l-0.21,1.17
		C32.34,70.23,33.32,69.91,34.33,69.94z"/>
	<path class="st0" d="M42.43,74.11c-0.02,0.11-0.1,0.43-0.16,0.63h-6.71c0,1.46,1,2.26,2.44,2.26c1.07,0,1.97-0.45,2.55-1.19
		l1.04,0.75c-0.83,1.14-2.28,1.75-3.76,1.75c-2.55,0-4.03-1.94-3.59-4.38c0.4-2.34,2.42-4.06,4.77-4.06
		C41.45,69.87,42.88,71.82,42.43,74.11z M41.11,73.5c0.06-1.59-0.9-2.31-2.18-2.31c-1.49,0-2.7,0.88-3.16,2.31H41.11z"/>
	<path class="st0" d="M48.65,69.94L48.4,71.4c-1.19-0.03-2.6,0.55-2.94,2.46v-0.02l-0.75,4.27h-1.4l1.41-8.02h1.4l-0.21,1.17
		C46.66,70.23,47.64,69.91,48.65,69.94z"/>
	<path class="st0" d="M50,70.08h1.4l-1.41,8.02h-1.4L50,70.08z M50.19,67.69c0.08-0.51,0.53-0.95,1.09-0.95
		c0.51,0,0.87,0.43,0.79,0.95c-0.1,0.51-0.55,0.93-1.11,0.93C50.43,68.62,50.11,68.19,50.19,67.69z"/>
	<path class="st0" d="M61.58,70.08l-1.41,8.02h-1.4l0.21-1.14c-0.79,0.85-1.86,1.35-3.21,1.35c-2.33,0-3.79-2.07-3.37-4.4
		c0.45-2.54,2.46-4.04,4.56-4.04c1.32,0,2.41,0.61,2.97,1.7l0.26-1.49H61.58z M59.46,74.16c0.35-1.91-0.91-2.94-2.41-2.94
		c-1.43,0-2.94,0.96-3.26,2.81c-0.29,1.64,0.72,2.94,2.36,2.94C57.76,76.97,59.19,75.8,59.46,74.16z"/>
	<path class="st0" d="M73.9,72.31c0.87,0.51,1.36,1.48,1.19,2.7c-0.26,1.7-1.72,3.1-3.84,3.1h-4.81l1.97-11.23h4.27
		c1.83,0,3.1,1.38,2.82,3.15C75.34,71.03,74.73,71.83,73.9,72.31z M72.15,73.07h-3.34l-0.64,3.64h3.27c1.09,0,2.01-0.82,2.18-1.83
		C73.79,73.87,73.16,73.07,72.15,73.07z M72.58,68.27h-2.92l-0.61,3.43h2.98c0.95,0,1.81-0.75,1.99-1.72
		C74.19,69.06,73.59,68.27,72.58,68.27z"/>
	<path class="st0" d="M76.49,73.95c0.47-2.58,2.71-4.08,4.94-4.08c2.23,0,3.93,1.78,3.48,4.33c-0.45,2.63-2.66,4.11-4.83,4.11
		C77.78,78.32,76.03,76.55,76.49,73.95z M83.54,74.06c0.32-1.83-0.88-2.82-2.33-2.82c-1.43,0.02-2.97,0.99-3.32,2.86
		c-0.3,1.88,0.88,2.87,2.31,2.86C81.66,76.95,83.22,75.96,83.54,74.06z"/>
	<path class="st0" d="M94.24,70.08l-1.41,8.02h-1.4l0.19-1.06c-0.74,0.9-1.72,1.27-2.74,1.27c-1.88,0-2.95-1.28-2.62-3.31l0.87-4.93
		h1.4l-0.85,4.85c-0.22,1.32,0.34,2.05,1.62,2.05c1.27,0,2.47-0.75,2.79-2.65v0.02l0.75-4.27H94.24z"/>
	<path class="st0" d="M97.58,75.78c-0.22,1.22,0.56,1.15,1.96,1.07l-0.22,1.25c-2.29,0.32-3.48-0.32-3.13-2.33l0.75-4.35h-1.59
		l0.26-1.35h1.57l0.32-1.83l1.48-0.42l-0.4,2.25h2.15l-0.24,1.35h-2.13L97.58,75.78z"/>
	<path class="st0" d="M102.38,70.08h1.4l-1.41,8.02h-1.4L102.38,70.08z M102.57,67.69c0.08-0.51,0.53-0.95,1.09-0.95
		c0.51,0,0.87,0.43,0.79,0.95c-0.1,0.51-0.55,0.93-1.11,0.93C102.81,68.62,102.49,68.19,102.57,67.69z"/>
	<path class="st0" d="M113.96,70.08l-1.97,11.23h-1.4l0.77-4.35c-0.79,0.85-1.86,1.35-3.21,1.35c-2.33,0-3.79-2.07-3.37-4.4
		c0.45-2.54,2.46-4.04,4.56-4.04c1.32,0,2.41,0.61,2.97,1.7l0.26-1.49H113.96z M111.85,74.18c0.35-1.91-0.91-2.95-2.41-2.95
		c-1.43,0-2.94,0.96-3.26,2.81c-0.29,1.64,0.72,2.94,2.36,2.94C110.14,76.97,111.57,75.81,111.85,74.18z"/>
	<path class="st0" d="M123.01,70.08l-1.41,8.02h-1.4l0.19-1.06c-0.74,0.9-1.72,1.27-2.74,1.27c-1.88,0-2.95-1.28-2.62-3.31
		l0.87-4.93h1.4l-0.85,4.85c-0.22,1.32,0.34,2.05,1.62,2.05c1.27,0,2.47-0.75,2.79-2.65v0.02l0.75-4.27H123.01z"/>
	<path class="st0" d="M132.18,74.11c-0.02,0.11-0.1,0.43-0.16,0.63h-6.71c0,1.46,1,2.26,2.44,2.26c1.07,0,1.97-0.45,2.55-1.19
		l1.04,0.75c-0.83,1.14-2.28,1.75-3.76,1.75c-2.55,0-4.03-1.94-3.59-4.38c0.4-2.34,2.42-4.06,4.77-4.06
		C131.2,69.87,132.63,71.82,132.18,74.11z M130.87,73.5c0.06-1.59-0.9-2.31-2.18-2.31c-1.49,0-2.7,0.88-3.16,2.31H130.87z"/>
	<path class="st0" d="M147.13,66.87l-1.97,11.23h-1.4l0.21-1.16c-0.79,0.85-1.88,1.36-3.23,1.36c-2.33,0-3.79-2.07-3.37-4.4
		c0.45-2.54,2.46-4.04,4.56-4.04c1.32,0,2.42,0.61,2.97,1.72l0.83-4.72H147.13z M144.45,74.16c0.34-1.91-0.91-2.94-2.41-2.94
		c-1.44,0-2.97,0.96-3.27,2.81c-0.29,1.64,0.72,2.94,2.36,2.94C142.75,76.97,144.16,75.8,144.45,74.16z"/>
	<path class="st0" d="M155.74,74.11c-0.02,0.11-0.1,0.43-0.16,0.63h-6.71c0,1.46,1,2.26,2.44,2.26c1.07,0,1.97-0.45,2.55-1.19
		l1.04,0.75c-0.83,1.14-2.28,1.75-3.76,1.75c-2.55,0-4.03-1.94-3.59-4.38c0.4-2.34,2.42-4.06,4.77-4.06
		C154.76,69.87,156.19,71.82,155.74,74.11z M154.43,73.5c0.06-1.59-0.9-2.31-2.18-2.31c-1.49,0-2.7,0.88-3.16,2.31H154.43z"/>
	<path class="st0" d="M161.3,74.34l1.3-7.46h1.49l-1.3,7.4c-0.27,1.53,0.45,2.58,2.25,2.58c1.85,0,2.95-1.11,3.21-2.58l1.3-7.4h1.48
		l-1.3,7.46c-0.47,2.55-2.34,3.98-4.73,3.98C162.44,78.32,160.89,76.69,161.3,74.34z"/>
	<path class="st0" d="M171.01,76.37l1.25-0.64c0.16,0.74,0.83,1.27,1.86,1.27c0.93,0,1.62-0.37,1.75-1.06
		c0.3-1.72-4.4-0.85-3.87-3.85c0.24-1.32,1.52-2.21,3.05-2.21c1.35,0,2.33,0.61,2.79,1.67l-1.24,0.64c-0.22-0.71-0.9-1.01-1.62-1.01
		c-0.66,0-1.44,0.31-1.59,1.06c-0.32,1.75,4.38,0.82,3.85,3.87c-0.26,1.43-1.52,2.21-3.24,2.21
		C172.36,78.32,171.38,77.51,171.01,76.37z"/>
	<path class="st0" d="M187.82,70.08l-1.41,8.02h-1.4l0.21-1.14c-0.79,0.85-1.86,1.35-3.21,1.35c-2.33,0-3.79-2.07-3.37-4.4
		c0.45-2.54,2.46-4.04,4.56-4.04c1.32,0,2.41,0.61,2.97,1.7l0.26-1.49H187.82z M185.7,74.16c0.35-1.91-0.91-2.94-2.41-2.94
		c-1.43,0-2.94,0.96-3.26,2.81c-0.29,1.64,0.72,2.94,2.36,2.94C184,76.97,185.43,75.8,185.7,74.16z"/>
	<path class="st0" d="M198.57,66.87l-1.97,11.23h-1.4l0.21-1.16c-0.79,0.85-1.88,1.36-3.23,1.36c-2.33,0-3.79-2.07-3.37-4.4
		c0.45-2.54,2.46-4.04,4.56-4.04c1.32,0,2.42,0.61,2.97,1.72l0.83-4.72H198.57z M195.89,74.16c0.34-1.91-0.91-2.94-2.41-2.94
		c-1.44,0-2.97,0.96-3.27,2.81c-0.29,1.64,0.72,2.94,2.36,2.94C194.19,76.97,195.6,75.8,195.89,74.16z"/>
	<path class="st0" d="M198.98,73.95c0.47-2.58,2.71-4.08,4.94-4.08c2.23,0,3.93,1.78,3.48,4.33c-0.45,2.63-2.66,4.11-4.83,4.11
		C200.26,78.32,198.51,76.55,198.98,73.95z M206.02,74.06c0.32-1.83-0.88-2.82-2.33-2.82c-1.43,0.02-2.97,0.99-3.32,2.86
		c-0.3,1.88,0.88,2.87,2.31,2.86C204.15,76.95,205.7,75.96,206.02,74.06z"/>
	<path class="st0" d="M208.12,76.37l1.25-0.64c0.16,0.74,0.83,1.27,1.86,1.27c0.93,0,1.62-0.37,1.75-1.06
		c0.3-1.72-4.4-0.85-3.87-3.85c0.24-1.32,1.52-2.21,3.05-2.21c1.35,0,2.33,0.61,2.79,1.67l-1.24,0.64c-0.22-0.71-0.9-1.01-1.62-1.01
		c-0.66,0-1.44,0.31-1.59,1.06c-0.32,1.75,4.38,0.82,3.85,3.87c-0.26,1.43-1.52,2.21-3.24,2.21
		C209.47,78.32,208.49,77.51,208.12,76.37z"/>
	<path class="st0" d="M221.9,66.87h1.14l4.38,8.43l1.46-8.43h1.49l-1.97,11.23h-1.14l-4.36-8.43l-1.48,8.43h-1.49L221.9,66.87z"/>
	<path class="st0" d="M232.07,67.53c0.24-1.38,1.46-2.42,2.95-2.42c1.43,0,2.34,1.17,2.1,2.55c-0.24,1.38-1.36,2.42-2.97,2.42
		C232.73,70.08,231.83,68.9,232.07,67.53z M235.85,67.6c0.13-0.72-0.29-1.28-1.04-1.28c-0.75,0-1.35,0.56-1.48,1.28
		c-0.13,0.72,0.22,1.28,1.03,1.28C235.13,68.88,235.74,68.32,235.85,67.6z"/>
	<path class="st0" d="M246.33,66.87l-1.97,11.23h-1.49l1.69-9.61v0.03l-2.5,0.71l-0.14-1.33l3.15-1.03H246.33z"/>
	<path class="st0" d="M259.13,74.11c-0.02,0.11-0.1,0.43-0.16,0.63h-6.71c0,1.46,1,2.26,2.44,2.26c1.07,0,1.97-0.45,2.55-1.19
		l1.04,0.75c-0.83,1.14-2.28,1.75-3.76,1.75c-2.55,0-4.03-1.94-3.59-4.38c0.4-2.34,2.42-4.06,4.77-4.06
		C258.15,69.87,259.58,71.82,259.13,74.11z M257.81,73.5c0.06-1.59-0.9-2.31-2.18-2.31c-1.49,0-2.7,0.88-3.16,2.31H257.81z"/>
	<path class="st0" d="M267.98,73.18l-0.87,4.93h-1.4l0.85-4.85c0.23-1.32-0.34-2.05-1.62-2.05c-1.27,0-2.47,0.75-2.79,2.65v-0.02
		l-0.75,4.27h-1.4l1.41-8.02h1.4l-0.19,1.06c0.74-0.9,1.72-1.27,2.74-1.27C267.24,69.87,268.32,71.16,267.98,73.18z"/>
	<path class="st0" d="M280.17,75.59h-5.06l-1.38,2.52h-1.62l6.18-11.23h1.69l2.21,11.23h-1.57L280.17,75.59z M279.91,74.19
		l-1.01-5.57l-3.03,5.57H279.91z"/>
	<path class="st0" d="M288.72,69.94l-0.26,1.46c-1.19-0.03-2.6,0.55-2.94,2.46v-0.02l-0.75,4.27h-1.4l1.41-8.02h1.4l-0.21,1.17
		C286.73,70.23,287.71,69.91,288.72,69.94z"/>
	<path class="st0" d="M297.81,70.08l-1.35,7.69c-0.45,2.54-2.34,3.76-4.61,3.76c-1.72,0-3.02-0.72-3.58-1.96l1.24-0.64
		c0.3,0.72,1.01,1.3,2.42,1.3c1.77,0,2.87-0.91,3.15-2.46l0.16-0.95c-0.75,0.88-1.85,1.41-3.13,1.41c-2.49,0-3.85-2.01-3.48-4.35
		c0.37-2.42,2.42-4.01,4.54-4.01c1.3,0,2.44,0.59,2.99,1.72l0.27-1.51H297.81z M295.7,74.29l0.08-0.42
		c0.19-1.72-1.09-2.66-2.47-2.66c-1.46,0-3,1.03-3.27,2.79c-0.27,1.65,0.74,2.89,2.41,2.89C293.95,76.89,295.33,75.86,295.7,74.29z"
		/>
	<path class="st0" d="M307,74.11c-0.02,0.11-0.1,0.43-0.16,0.63h-6.71c0,1.46,1,2.26,2.44,2.26c1.07,0,1.97-0.45,2.55-1.19
		l1.04,0.75c-0.83,1.14-2.28,1.75-3.76,1.75c-2.55,0-4.03-1.94-3.59-4.38c0.4-2.34,2.42-4.06,4.77-4.06
		C306.02,69.87,307.45,71.82,307,74.11z M305.69,73.5c0.06-1.59-0.9-2.31-2.18-2.31c-1.49,0-2.7,0.88-3.16,2.31H305.69z"/>
	<path class="st0" d="M315.86,73.18l-0.87,4.93h-1.4l0.85-4.85c0.23-1.32-0.34-2.05-1.62-2.05c-1.27,0-2.47,0.75-2.79,2.65v-0.02
		l-0.75,4.27h-1.4l1.41-8.02h1.4l-0.19,1.06c0.74-0.9,1.72-1.27,2.74-1.27C315.12,69.87,316.19,71.16,315.86,73.18z"/>
	<path class="st0" d="M319.57,75.78c-0.22,1.22,0.56,1.15,1.96,1.07l-0.22,1.25c-2.29,0.32-3.48-0.32-3.13-2.33l0.75-4.35h-1.59
		l0.26-1.35h1.57l0.32-1.83l1.48-0.42l-0.4,2.25h2.15l-0.24,1.35h-2.13L319.57,75.78z"/>
	<path class="st0" d="M324.37,70.08h1.4l-1.41,8.02h-1.4L324.37,70.08z M324.56,67.69c0.08-0.51,0.53-0.95,1.09-0.95
		c0.51,0,0.87,0.43,0.79,0.95c-0.1,0.51-0.55,0.93-1.11,0.93C324.8,68.62,324.48,68.19,324.56,67.69z"/>
	<path class="st0" d="M334.46,73.18l-0.87,4.93h-1.4l0.85-4.85c0.23-1.32-0.34-2.05-1.62-2.05c-1.27,0-2.47,0.75-2.79,2.65v-0.02
		l-0.75,4.27h-1.4l1.41-8.02h1.4l-0.19,1.06c0.74-0.9,1.72-1.27,2.74-1.27C333.72,69.87,334.8,71.16,334.46,73.18z"/>
	<path class="st0" d="M345,70.08l-1.41,8.02h-1.4l0.21-1.14c-0.79,0.85-1.86,1.35-3.21,1.35c-2.33,0-3.79-2.07-3.37-4.4
		c0.45-2.54,2.46-4.04,4.56-4.04c1.32,0,2.41,0.61,2.97,1.7l0.26-1.49H345z M342.88,74.16c0.35-1.91-0.91-2.94-2.41-2.94
		c-1.43,0-2.94,0.96-3.26,2.81c-0.29,1.64,0.72,2.94,2.36,2.94C341.18,76.97,342.61,75.8,342.88,74.16z"/>
</g>
</svg>
